<svg width="386.504" height="99.202" viewBox="0 0 386.504 99.202" xmlns="http://www.w3.org/2000/svg"><g id="svgGroup" stroke-linecap="round" fill-rule="evenodd" font-size="9pt" stroke="#000" stroke-width="0.0mm" fill="#ff7b00" style="stroke:#000;stroke-width:0.0mm;fill:#ff7b00"><path d="M 356.103 46.901 L 356.103 70.301 A 9.206 9.206 0 0 1 355.743 72.993 Q 354.838 75.952 351.65 76.727 A 10.817 10.817 0 0 1 349.103 77.001 A 11.017 11.017 0 0 1 346.885 76.791 Q 345.53 76.513 344.479 75.865 A 6.3 6.3 0 0 1 343.703 75.301 A 5.456 5.456 0 0 1 341.939 72.381 Q 341.717 71.495 341.703 70.442 A 10.721 10.721 0 0 1 341.703 70.301 L 341.703 7.801 A 12.058 12.058 0 0 1 342.046 4.786 Q 343.049 0.911 346.99 0.174 A 10.962 10.962 0 0 1 349.003 0.001 A 9.513 9.513 0 0 1 351.939 0.416 Q 355.02 1.415 355.875 4.827 A 12.278 12.278 0 0 1 356.203 7.801 L 356.203 18.501 Q 356.203 21.301 355.603 23.901 A 22.136 22.136 0 0 1 354.608 27.059 A 28.227 28.227 0 0 1 353.603 29.301 A 9.107 9.107 0 0 1 357.42 26.545 A 11.216 11.216 0 0 1 358.103 26.301 Q 360.728 25.458 364.144 25.405 A 29.737 29.737 0 0 1 364.603 25.401 A 28.257 28.257 0 0 1 370.417 25.973 A 21.481 21.481 0 0 1 376.103 28.001 Q 381.003 30.601 383.753 35.251 A 19.464 19.464 0 0 1 386.163 42.018 A 25.972 25.972 0 0 1 386.503 46.301 L 386.503 70.301 A 9.206 9.206 0 0 1 386.143 72.993 Q 385.238 75.952 382.05 76.727 A 10.817 10.817 0 0 1 379.503 77.001 A 11.017 11.017 0 0 1 377.285 76.791 Q 375.93 76.513 374.879 75.865 A 6.3 6.3 0 0 1 374.103 75.301 A 5.456 5.456 0 0 1 372.339 72.381 Q 372.117 71.495 372.103 70.442 A 10.721 10.721 0 0 1 372.103 70.301 L 372.103 46.901 A 16.43 16.43 0 0 0 371.903 44.251 Q 371.447 41.47 369.953 39.801 Q 367.803 37.401 364.003 37.401 A 8.983 8.983 0 0 0 361.501 37.732 A 6.706 6.706 0 0 0 358.203 39.851 Q 356.503 41.834 356.179 45.223 A 17.63 17.63 0 0 0 356.103 46.901 Z M 44.882 88.498 A 14.11 14.11 0 0 0 46.203 82.301 A 20.117 20.117 0 0 0 46.184 81.429 A 16.898 16.898 0 0 0 44.153 73.951 A 10.347 10.347 0 0 0 44.07 73.804 Q 42.778 71.528 40.377 69.986 A 16.172 16.172 0 0 0 37.103 68.401 Q 42.303 65.501 44.253 61.101 A 18.811 18.811 0 0 0 45.034 58.995 Q 45.642 57.013 45.934 54.657 A 37.977 37.977 0 0 0 46.203 50.001 A 46.257 46.257 0 0 0 46.007 45.654 Q 45.687 42.265 44.842 39.451 A 20.665 20.665 0 0 0 41.903 33.301 A 16.701 16.701 0 0 1 43.36 33.096 A 21.071 21.071 0 0 1 45.403 33.001 Q 48.29 33.001 50.144 32.355 A 6.078 6.078 0 0 0 51.803 31.501 A 4.446 4.446 0 0 0 52.916 30.287 Q 53.803 28.865 53.803 26.601 A 12.65 12.65 0 0 0 53.79 26.043 Q 53.738 24.854 53.458 23.861 A 6.27 6.27 0 0 0 51.753 20.951 A 6.201 6.201 0 0 0 50.582 20.077 Q 49.545 19.476 48.208 19.211 A 11.859 11.859 0 0 0 45.903 19.001 A 13.265 13.265 0 0 0 45.618 19.004 Q 39.954 19.126 37.211 24.117 A 17.316 17.316 0 0 0 35.703 28.001 A 19.304 19.304 0 0 0 33.637 27.08 Q 29.209 25.401 23.103 25.401 A 39.757 39.757 0 0 0 20.006 25.518 Q 10.794 26.238 5.803 31.401 A 17.762 17.762 0 0 0 2.315 36.707 Q 1.086 39.524 0.51 43.073 A 42.733 42.733 0 0 0 0.003 49.901 A 38.397 38.397 0 0 0 0.973 58.934 Q 3.657 69.991 13.761 73.144 A 31.036 31.036 0 0 0 23.003 74.401 A 12.761 12.761 0 0 1 25.566 74.647 A 9.101 9.101 0 0 1 29.303 76.301 A 7.84 7.84 0 0 1 29.459 76.423 Q 30.611 77.346 31.197 78.54 A 6.187 6.187 0 0 1 31.803 81.301 Q 31.803 85.001 28.353 86.201 A 14.542 14.542 0 0 1 26.524 86.691 Q 23.08 87.401 17.003 87.401 Q 15.421 87.401 14.179 87.301 A 19.187 19.187 0 0 1 12.853 87.151 Q 11.203 86.901 9.803 86.651 Q 8.403 86.401 6.403 86.401 A 13.396 13.396 0 0 0 5.261 86.448 Q 4.385 86.523 3.648 86.719 A 6.069 6.069 0 0 0 2.103 87.351 A 2.865 2.865 0 0 0 0.954 88.67 Q 0.503 89.661 0.503 91.201 Q 0.503 93.764 1.889 95.486 A 7.148 7.148 0 0 0 4.053 97.251 A 10.384 10.384 0 0 0 5.266 97.814 Q 7.66 98.752 11.402 99.055 A 48.381 48.381 0 0 0 15.303 99.201 A 102.648 102.648 0 0 0 16.551 99.194 Q 25.519 99.085 31.887 97.392 A 30.323 30.323 0 0 0 38.203 95.001 A 19.363 19.363 0 0 0 40.274 93.749 Q 43.405 91.568 44.882 88.498 Z M 305.453 76.733 A 64.282 64.282 0 0 0 311.603 77.001 A 37.541 37.541 0 0 0 314.484 76.894 Q 321.852 76.327 326.353 72.751 A 13.768 13.768 0 0 0 330.642 67.19 A 14.782 14.782 0 0 0 331.703 61.501 A 17.578 17.578 0 0 0 331.426 58.312 A 12.334 12.334 0 0 0 328.203 51.851 Q 325.796 49.342 321.547 47.518 A 38.825 38.825 0 0 0 317.303 46.001 A 81.535 81.535 0 0 1 316.947 45.895 Q 311.839 44.356 310.003 43.051 A 5.748 5.748 0 0 1 309.309 42.476 A 3.759 3.759 0 0 1 308.103 39.701 A 4.656 4.656 0 0 1 308.105 39.549 Q 308.19 36.95 311.211 36.431 A 10.037 10.037 0 0 1 312.903 36.301 A 18.916 18.916 0 0 1 313.378 36.307 A 16.806 16.806 0 0 1 316.153 36.601 A 22.028 22.028 0 0 1 316.346 36.64 A 20.018 20.018 0 0 1 319.103 37.401 A 125.213 125.213 0 0 0 320.236 37.694 Q 321.424 37.995 322.353 38.201 Q 323.154 38.379 323.832 38.452 A 8.228 8.228 0 0 0 324.703 38.501 Q 327.103 38.501 328.503 36.901 A 5.451 5.451 0 0 0 329.635 34.848 A 6.774 6.774 0 0 0 329.903 32.901 A 5.701 5.701 0 0 0 327.784 28.369 A 9.411 9.411 0 0 0 325.803 27.101 Q 322.984 25.726 318.7 25.297 A 42.177 42.177 0 0 0 314.503 25.101 A 40.924 40.924 0 0 0 311.086 25.239 Q 307.958 25.501 305.344 26.264 A 19.1 19.1 0 0 0 299.403 29.101 A 12.682 12.682 0 0 0 294.598 35.753 A 16.686 16.686 0 0 0 293.903 40.701 Q 293.903 46.101 296.953 49.751 A 14.893 14.893 0 0 0 300.117 52.597 A 16.932 16.932 0 0 0 305.003 54.801 A 469.294 469.294 0 0 1 305.201 54.859 Q 309.188 56.021 311.621 56.808 A 76.822 76.822 0 0 1 313.103 57.301 Q 315.703 58.201 316.503 59.151 Q 317.303 60.101 317.303 61.801 A 4.84 4.84 0 0 1 317.22 62.72 A 2.964 2.964 0 0 1 315.803 64.801 Q 314.678 65.476 312.371 65.645 A 22.96 22.96 0 0 1 310.703 65.701 A 18.282 18.282 0 0 1 310.106 65.692 A 20.192 20.192 0 0 1 306.803 65.301 A 52.341 52.341 0 0 1 306.714 65.284 Q 304.776 64.892 303.603 64.501 A 271.496 271.496 0 0 0 302.639 64.193 Q 301.167 63.726 300.357 63.492 A 21.912 21.912 0 0 0 299.853 63.351 Q 298.903 63.101 297.903 63.101 A 6.456 6.456 0 0 0 297.206 63.138 A 4.652 4.652 0 0 0 294.203 64.601 A 4.704 4.704 0 0 0 293.858 65.015 Q 292.803 66.444 292.803 68.701 A 6.246 6.246 0 0 0 296.299 74.316 Q 299.453 76.153 305.453 76.733 Z M 150.503 91.401 L 150.503 52.001 Q 150.503 38.401 156.503 31.701 A 19.598 19.598 0 0 1 167.607 25.531 A 29.109 29.109 0 0 1 173.303 25.001 A 27.825 27.825 0 0 1 180.826 25.965 A 20.433 20.433 0 0 1 190.653 32.001 A 22.336 22.336 0 0 1 195.263 40.149 Q 196.377 43.535 196.778 47.652 A 50.116 50.116 0 0 1 197.003 52.501 A 50.854 50.854 0 0 1 196.723 58.015 Q 196.42 60.779 195.792 63.085 A 21.602 21.602 0 0 1 194.403 66.851 A 19.079 19.079 0 0 1 191.636 71.094 A 15.162 15.162 0 0 1 187.203 74.601 Q 182.603 77.001 176.603 77.001 Q 172.704 77.001 169.845 76.158 A 14.24 14.24 0 0 1 168.053 75.501 Q 164.703 74.001 162.803 70.901 A 27.108 27.108 0 0 1 163.652 73.83 A 23.648 23.648 0 0 1 163.853 74.801 A 29.364 29.364 0 0 1 164.121 76.579 Q 164.231 77.491 164.306 78.51 A 50.666 50.666 0 0 1 164.353 79.201 Q 164.487 81.438 164.501 84.794 A 191.5 191.5 0 0 1 164.503 85.601 L 164.503 91.401 Q 164.503 98.185 159.435 99.069 A 9.505 9.505 0 0 1 157.803 99.201 A 9.822 9.822 0 0 1 154.869 98.801 Q 151.663 97.797 150.811 94.277 A 12.26 12.26 0 0 1 150.503 91.401 Z M 228.703 76.201 L 211.803 76.201 A 4.254 4.254 0 0 1 208.68 74.884 A 5.511 5.511 0 0 1 208.553 74.751 A 4.992 4.992 0 0 1 207.232 71.738 A 6.664 6.664 0 0 1 207.203 71.101 L 207.203 26.501 A 30.579 30.579 0 0 1 207.804 20.238 Q 208.599 16.439 210.447 13.552 A 16.586 16.586 0 0 1 212.853 10.601 A 18.134 18.134 0 0 1 220.281 6.31 Q 223.088 5.441 226.469 5.197 A 37.939 37.939 0 0 1 229.203 5.101 A 30.398 30.398 0 0 1 241.779 7.514 Q 254.807 13.381 256.831 33.516 A 79.012 79.012 0 0 1 257.203 41.401 Q 257.203 58.878 250.378 67.434 A 21.883 21.883 0 0 1 250.203 67.651 Q 243.203 76.201 228.703 76.201 Z M 118.703 58.801 L 112.903 58.801 A 12.521 12.521 0 0 0 113.716 61.077 Q 114.367 62.438 115.315 63.417 A 7.674 7.674 0 0 0 115.553 63.651 A 5.103 5.103 0 0 0 117.161 64.648 Q 119.018 65.401 122.103 65.401 A 37.407 37.407 0 0 0 123.63 65.372 Q 125.203 65.308 126.303 65.101 Q 127.903 64.801 129.353 64.501 A 13.637 13.637 0 0 1 130.811 64.286 Q 131.555 64.214 132.39 64.203 A 23.364 23.364 0 0 1 132.703 64.201 A 12.482 12.482 0 0 1 134.392 64.308 Q 135.26 64.427 135.975 64.678 A 5.691 5.691 0 0 1 137.003 65.151 A 2.902 2.902 0 0 1 138.199 66.581 Q 138.603 67.546 138.603 69.001 A 7.404 7.404 0 0 1 138.144 71.67 Q 137.429 73.536 135.598 74.725 A 8.598 8.598 0 0 1 135.053 75.051 A 12.212 12.212 0 0 1 132.433 76.078 Q 129.842 76.796 126.064 76.956 A 53.601 53.601 0 0 1 123.803 77.001 Q 117.24 77.001 112.551 75.58 A 20.454 20.454 0 0 1 108.153 73.701 Q 102.503 70.401 100.153 64.601 Q 97.803 58.801 97.803 51.301 A 49.268 49.268 0 0 1 98.272 44.243 Q 99.494 35.823 103.903 31.451 A 20.378 20.378 0 0 1 114.557 25.934 A 29.505 29.505 0 0 1 120.303 25.401 A 31.183 31.183 0 0 1 126.142 25.924 A 24.067 24.067 0 0 1 131.303 27.501 A 19.063 19.063 0 0 1 135.867 30.274 A 16.202 16.202 0 0 1 138.803 33.451 Q 141.503 37.301 141.503 42.801 A 15.587 15.587 0 0 1 139.649 50.625 Q 136.065 56.929 125.556 58.372 A 50.557 50.557 0 0 1 118.703 58.801 Z M 58.703 70.201 L 58.703 32.301 A 9.492 9.492 0 0 1 59.072 29.529 Q 60.004 26.482 63.283 25.684 A 11.113 11.113 0 0 1 65.903 25.401 A 13.204 13.204 0 0 1 67.757 25.522 Q 69.9 25.827 71.05 26.901 A 3.978 3.978 0 0 1 71.103 26.951 A 4.6 4.6 0 0 1 72.182 28.643 Q 72.703 30.005 72.703 32.001 Q 74.503 28.701 77.853 27.051 A 15.682 15.682 0 0 1 82.236 25.674 A 21.135 21.135 0 0 1 85.703 25.401 A 14.348 14.348 0 0 1 88.948 25.735 Q 93.375 26.767 94.142 30.991 A 10.7 10.7 0 0 1 94.303 32.901 A 5.899 5.899 0 0 1 94.054 34.661 A 4.46 4.46 0 0 1 92.203 37.101 A 6.44 6.44 0 0 1 90.626 37.84 Q 89.053 38.354 86.709 38.468 A 28.857 28.857 0 0 1 85.303 38.501 Q 80.603 38.501 77.903 39.351 A 7.075 7.075 0 0 0 76.077 40.207 A 5.405 5.405 0 0 0 74.153 42.451 A 9.175 9.175 0 0 0 73.56 44.206 Q 73.135 45.993 73.105 48.514 A 32.523 32.523 0 0 0 73.103 48.901 L 73.103 70.201 A 9.227 9.227 0 0 1 72.733 72.933 Q 71.801 75.937 68.522 76.723 A 11.269 11.269 0 0 1 65.903 77.001 A 11.019 11.019 0 0 1 63.108 76.679 Q 59.538 75.74 58.861 72.07 A 10.311 10.311 0 0 1 58.703 70.201 Z M 282.703 32.201 L 282.703 70.301 A 9.206 9.206 0 0 1 282.343 72.993 Q 281.438 75.952 278.25 76.727 A 10.817 10.817 0 0 1 275.703 77.001 A 11.341 11.341 0 0 1 273.485 76.797 Q 272.189 76.539 271.171 75.952 A 6.313 6.313 0 0 1 270.303 75.351 Q 268.449 73.822 268.313 70.79 A 10.927 10.927 0 0 1 268.303 70.301 L 268.303 32.201 A 9.99 9.99 0 0 1 268.493 30.188 Q 268.745 28.966 269.329 28.025 A 5.54 5.54 0 0 1 269.953 27.201 A 4.811 4.811 0 0 1 271.745 26.003 Q 273.245 25.402 275.494 25.401 A 17.601 17.601 0 0 1 275.503 25.401 A 13.298 13.298 0 0 1 277.467 25.536 Q 279.854 25.893 281.053 27.201 A 5.955 5.955 0 0 1 282.387 29.669 Q 282.643 30.589 282.691 31.686 A 11.765 11.765 0 0 1 282.703 32.201 Z M 221.603 23.301 L 221.603 64.401 L 228.703 64.401 A 14.889 14.889 0 0 0 233.075 63.797 A 10.874 10.874 0 0 0 239.453 58.651 Q 242.288 53.784 242.724 43.865 A 85.953 85.953 0 0 0 242.803 40.101 Q 242.803 27.901 239.753 22.751 Q 236.703 17.601 229.403 17.601 Q 221.603 17.601 221.603 23.301 Z M 174.003 65.301 A 9.566 9.566 0 0 0 176.892 64.886 A 7.464 7.464 0 0 0 180.553 62.351 A 7.884 7.884 0 0 0 181.739 60.141 Q 182.582 57.843 182.814 54.179 A 47.255 47.255 0 0 0 182.903 51.201 A 44.958 44.958 0 0 0 182.765 47.537 Q 182.474 43.996 181.569 41.826 A 7.411 7.411 0 0 0 180.553 40.051 A 7.661 7.661 0 0 0 175.055 37.15 A 11.009 11.009 0 0 0 174.003 37.101 A 9.566 9.566 0 0 0 171.113 37.516 A 7.464 7.464 0 0 0 167.453 40.051 A 7.884 7.884 0 0 0 166.266 42.261 Q 165.423 44.559 165.191 48.223 A 47.255 47.255 0 0 0 165.103 51.201 A 44.958 44.958 0 0 0 165.24 54.865 Q 165.531 58.407 166.436 60.577 A 7.411 7.411 0 0 0 167.453 62.351 A 7.661 7.661 0 0 0 172.95 65.252 A 11.009 11.009 0 0 0 174.003 65.301 Z M 14.403 49.901 A 26.592 26.592 0 0 0 14.734 54.307 Q 16.055 62.126 22.632 62.392 A 11.627 11.627 0 0 0 23.103 62.401 A 8.388 8.388 0 0 0 27.405 61.357 Q 30.781 59.385 31.565 53.691 A 27.877 27.877 0 0 0 31.803 49.901 A 31.229 31.229 0 0 0 31.637 46.565 Q 31.206 42.569 29.653 40.401 A 6.961 6.961 0 0 0 25.057 37.569 A 10.837 10.837 0 0 0 23.103 37.401 A 9.767 9.767 0 0 0 20.408 37.752 A 6.976 6.976 0 0 0 16.603 40.401 A 9.23 9.23 0 0 0 15.35 42.877 Q 14.532 45.259 14.42 48.763 A 35.702 35.702 0 0 0 14.403 49.901 Z M 272.212 16.243 A 9.392 9.392 0 0 0 275.503 16.801 A 11.193 11.193 0 0 0 276.545 16.754 A 8.312 8.312 0 0 0 281.753 14.401 A 8.138 8.138 0 0 0 283.449 12.046 A 8.225 8.225 0 0 0 284.203 8.501 Q 284.203 4.801 281.753 2.401 A 8.091 8.091 0 0 0 278.519 0.444 A 9.842 9.842 0 0 0 275.503 0.001 A 11.144 11.144 0 0 0 275.144 0.007 A 8.533 8.533 0 0 0 269.303 2.401 A 7.876 7.876 0 0 0 267.316 5.415 A 8.958 8.958 0 0 0 266.803 8.501 Q 266.803 12.001 269.303 14.401 A 8.377 8.377 0 0 0 272.212 16.243 Z M 112.203 51.401 Q 113.003 50.301 114.003 49.951 A 4.614 4.614 0 0 1 114.652 49.782 Q 115.593 49.601 117.103 49.601 Q 123.003 49.601 125.253 48.451 A 3.908 3.908 0 0 0 127.375 45.626 A 6.462 6.462 0 0 0 127.503 44.301 Q 127.503 40.501 125.403 38.451 Q 123.303 36.401 120.103 36.401 Q 116.403 36.401 114.303 39.501 A 8.498 8.498 0 0 0 113.311 41.623 Q 112.566 43.897 112.322 47.529 A 57.954 57.954 0 0 0 112.203 51.401 Z" vector-effect="non-scaling-stroke"/></g></svg>